<svg width="599" height="596" viewBox="0 0 599 596" fill="none" xmlns="http://www.w3.org/2000/svg">
<path d="M208.821 433.206C223.991 339.199 101.364 353.209 38.1545 371.965C-31.7906 411.134 4.27 496.312 67.376 537.035C130.482 577.759 189.858 550.713 208.821 433.206Z" fill="#EFEFEF"/>
<path d="M304.318 74.2255C325.142 -18.9333 156.815 -5.04988 70.0483 13.5367C-25.964 52.3529 23.5357 136.763 110.16 177.119C196.784 217.476 278.288 190.674 304.318 74.2255Z" fill="#EFEFEF"/>
<path d="M239.04 276.556C279.062 108.586 454.365 116.572 500.297 130.253C546.229 143.934 566.123 175.484 588.65 311.736C611.177 447.987 603.278 603.393 500.297 595.296C397.315 587.199 199.018 444.525 239.04 276.556Z" fill="#EFEFEF"/>
</svg>
